<mxfile host="Electron" agent="Mozilla/5.0 (Windows NT 10.0; Win64; x64) AppleWebKit/537.36 (KHTML, like Gecko) draw.io/25.0.2 Chrome/128.0.6613.186 Electron/32.2.5 Safari/537.36" version="25.0.2" pages="5">
  <diagram name="Diagrama de casos de uso" id="9AypORdBvpstCfJbFDK_">
    <mxGraphModel dx="1418" dy="820" grid="1" gridSize="10" guides="1" tooltips="1" connect="1" arrows="1" fold="1" page="1" pageScale="1" pageWidth="827" pageHeight="1169" math="0" shadow="0">
      <root>
        <mxCell id="0" />
        <mxCell id="1" parent="0" />
        <mxCell id="LvvvizoOfUhnttTialCG-9" style="edgeStyle=orthogonalEdgeStyle;rounded=0;orthogonalLoop=1;jettySize=auto;html=1;entryX=0;entryY=0.5;entryDx=0;entryDy=0;" edge="1" parent="1" source="LvvvizoOfUhnttTialCG-1" target="LvvvizoOfUhnttTialCG-5">
          <mxGeometry relative="1" as="geometry">
            <mxPoint x="80" y="340" as="targetPoint" />
          </mxGeometry>
        </mxCell>
        <mxCell id="LvvvizoOfUhnttTialCG-12" style="edgeStyle=orthogonalEdgeStyle;rounded=0;orthogonalLoop=1;jettySize=auto;html=1;entryX=0;entryY=0.5;entryDx=0;entryDy=0;" edge="1" parent="1" source="LvvvizoOfUhnttTialCG-1" target="LvvvizoOfUhnttTialCG-3">
          <mxGeometry relative="1" as="geometry" />
        </mxCell>
        <mxCell id="LvvvizoOfUhnttTialCG-1" value="Usuário" style="shape=umlActor;verticalLabelPosition=bottom;verticalAlign=top;html=1;outlineConnect=0;" vertex="1" parent="1">
          <mxGeometry x="50" y="50" width="60" height="110" as="geometry" />
        </mxCell>
        <mxCell id="LvvvizoOfUhnttTialCG-17" style="edgeStyle=orthogonalEdgeStyle;rounded=0;orthogonalLoop=1;jettySize=auto;html=1;" edge="1" parent="1" source="LvvvizoOfUhnttTialCG-2" target="LvvvizoOfUhnttTialCG-14">
          <mxGeometry relative="1" as="geometry">
            <mxPoint x="590" y="590" as="targetPoint" />
            <Array as="points">
              <mxPoint x="590" y="570" />
            </Array>
          </mxGeometry>
        </mxCell>
        <mxCell id="LvvvizoOfUhnttTialCG-2" value="Sistema" style="shape=umlActor;verticalLabelPosition=bottom;verticalAlign=top;html=1;outlineConnect=0;" vertex="1" parent="1">
          <mxGeometry x="560" y="50" width="60" height="110" as="geometry" />
        </mxCell>
        <mxCell id="LvvvizoOfUhnttTialCG-3" value="Se cadastra no sistema" style="ellipse;whiteSpace=wrap;html=1;" vertex="1" parent="1">
          <mxGeometry x="100" y="340" width="120" height="80" as="geometry" />
        </mxCell>
        <mxCell id="LvvvizoOfUhnttTialCG-4" value="Cria uma categoria de transação" style="ellipse;whiteSpace=wrap;html=1;" vertex="1" parent="1">
          <mxGeometry x="100" y="460" width="120" height="80" as="geometry" />
        </mxCell>
        <mxCell id="LvvvizoOfUhnttTialCG-5" value="Agenda uma transação em algum horário" style="ellipse;whiteSpace=wrap;html=1;" vertex="1" parent="1">
          <mxGeometry x="100" y="585" width="120" height="80" as="geometry" />
        </mxCell>
        <mxCell id="LvvvizoOfUhnttTialCG-6" value="Efetua os pagamentos agendados" style="ellipse;whiteSpace=wrap;html=1;" vertex="1" parent="1">
          <mxGeometry x="450" y="350" width="120" height="80" as="geometry" />
        </mxCell>
        <mxCell id="LvvvizoOfUhnttTialCG-10" style="edgeStyle=orthogonalEdgeStyle;rounded=0;orthogonalLoop=1;jettySize=auto;html=1;entryX=0;entryY=0.675;entryDx=0;entryDy=0;entryPerimeter=0;" edge="1" parent="1" source="LvvvizoOfUhnttTialCG-1" target="LvvvizoOfUhnttTialCG-4">
          <mxGeometry relative="1" as="geometry" />
        </mxCell>
        <mxCell id="LvvvizoOfUhnttTialCG-14" value="Envia Nodificação avisando o sucesso da transferência" style="ellipse;whiteSpace=wrap;html=1;" vertex="1" parent="1">
          <mxGeometry x="460" y="530" width="120" height="80" as="geometry" />
        </mxCell>
        <mxCell id="LvvvizoOfUhnttTialCG-16" style="edgeStyle=orthogonalEdgeStyle;rounded=0;orthogonalLoop=1;jettySize=auto;html=1;entryX=1;entryY=0.625;entryDx=0;entryDy=0;entryPerimeter=0;" edge="1" parent="1" source="LvvvizoOfUhnttTialCG-2" target="LvvvizoOfUhnttTialCG-6">
          <mxGeometry relative="1" as="geometry" />
        </mxCell>
      </root>
    </mxGraphModel>
  </diagram>
  <diagram name="Modelo conceitual" id="GB-YrDz4e6XPecb-XZR1">
    <mxGraphModel dx="1418" dy="820" grid="1" gridSize="10" guides="1" tooltips="1" connect="1" arrows="1" fold="1" page="1" pageScale="1" pageWidth="827" pageHeight="1169" math="0" shadow="0">
      <root>
        <mxCell id="v4_q-wK4S_TUw_0M1wPk-0" />
        <mxCell id="v4_q-wK4S_TUw_0M1wPk-1" parent="v4_q-wK4S_TUw_0M1wPk-0" />
      </root>
    </mxGraphModel>
  </diagram>
  <diagram id="jFVSbaOb7T00uvMVOl1m" name="Diagrama de classes">
    <mxGraphModel dx="1418" dy="820" grid="1" gridSize="10" guides="1" tooltips="1" connect="1" arrows="1" fold="1" page="1" pageScale="1" pageWidth="827" pageHeight="1169" math="0" shadow="0">
      <root>
        <mxCell id="0" />
        <mxCell id="1" parent="0" />
      </root>
    </mxGraphModel>
  </diagram>
  <diagram id="iIK4uv3knB_N88YwyJmG" name="Diagrama de estados.">
    <mxGraphModel dx="1418" dy="820" grid="1" gridSize="10" guides="1" tooltips="1" connect="1" arrows="1" fold="1" page="1" pageScale="1" pageWidth="827" pageHeight="1169" math="0" shadow="0">
      <root>
        <mxCell id="0" />
        <mxCell id="1" parent="0" />
      </root>
    </mxGraphModel>
  </diagram>
  <diagram id="8hGdFZyyyruJXE962UZh" name="Diagrama de Atividades">
    <mxGraphModel dx="1418" dy="820" grid="1" gridSize="10" guides="1" tooltips="1" connect="1" arrows="1" fold="1" page="1" pageScale="1" pageWidth="827" pageHeight="1169" math="0" shadow="0">
      <root>
        <mxCell id="0" />
        <mxCell id="1" parent="0" />
      </root>
    </mxGraphModel>
  </diagram>
</mxfile>
